<?xml version="1.0" encoding="UTF-8"?>
<svg xmlns="http://www.w3.org/2000/svg" width="640" height="480" viewBox="0 0 640 480">
  <defs>
    <!-- Diagonal clipping areas -->
    <clipPath id="clip-us">
      <polygon points="0,0 640,0 0,480"/>
    </clipPath>
    <clipPath id="clip-uk">
      <polygon points="640,480 640,0 0,480"/>
    </clipPath>
  </defs>

  <!-- 🇺🇸 U.S. Flag in upper-left triangle -->
  <g clip-path="url(#clip-us)">
    <rect width="640" height="480" fill="#bd3d44"/>
    <path stroke="#fff" stroke-width="37"
      d="M0 55.3h640M0 129h640M0 203h640M0 277h640M0 351h640M0 425h640"/>
    <rect width="364.8" height="258.5" fill="#192f5d"/>

    <!-- Stars (exactly as you placed them) -->
    <g fill="#fff">
      <path d="m31.316998,10.90033 9,27 -23,-17 h28 l-23,17z"/>
      <path d="m31.316998,63 9,27 -23,-17 h28 l-23,17z"/>
      <path d="m31.316998,115 9,27 -23,-17 h28 l-23,17z"/>
      <path d="m31.316998,166 9,27 -23,-17 h28 l-23,17z"/>
      <path d="m31.316998,218 9,27 -23,-17 h28 l-23,17z"/>

      <path d="m61.339711,37 9,27 -23,-17 h28 l-23,17z"/>
      <path d="m61.339711,89 9,27 -23,-17 h28 l-23,17z"/>
      <path d="m61.339711,141 9,27 -23,-17 h28 l-23,17z"/>
      <path d="m61.339711,192 9,27 -23,-17 h28 l-23,17z"/>

      <path d="m91.362425,10.90033 9,27 -23,-17 h28 l-23,17z"/>
      <path d="m91.362425,63 9,27 -23,-17 h28 l-23,17z"/>
      <path d="m91.362425,115 9,27 -23,-17 h28 l-23,17z"/>
      <path d="m91.362425,166 9,27 -23,-17 h28 l-23,17z"/>
      <path d="m91.362425,218 9,27 -23,-17 h28 l-23,17z"/>

      <path d="m121.38513,37 9,27 -23,-17 h28 l-23,17z"/>
      <path d="m121.38513,89 9,27 -23,-17 h28 l-23,17z"/>
      <path d="m121.38513,141 9,27 -23,-17 h28 l-23,17z"/>
      <path d="m121.38513,192 9,27 -23,-17 h28 l-23,17z"/>

      <path d="m151.40784,10.90033 9,27 -23,-17 h28 l-23,17z"/>
      <path d="m151.40784,63 9,27 -23,-17 h28 l-23,17z"/>
      <path d="m151.40784,115 9,27 -23,-17 h28 l-23,17z"/>
      <path d="m151.40784,166 9,27 -23,-17 h28 l-23,17z"/>
      <path d="m151.40784,218 9,27 -23,-17 h28 l-23,17z"/>

      <path d="m181.43055,37 9,27 -23,-17 h28 l-23,17z"/>
      <path d="m181.43055,89 9,27 -23,-17 h28 l-23,17z"/>
      <path d="m181.43055,141 9,27 -23,-17 h28 l-23,17z"/>
      <path d="m181.43055,192 9,27 -23,-17 h28 l-23,17z"/>

      <path d="m211.45327,10.90033 9,27 -23,-17 h28 l-23,17z"/>
      <path d="m211.45327,63 9,27 -23,-17 h28 l-23,17z"/>
      <path d="m211.45327,115 9,27 -23,-17 h28 l-23,17z"/>
      <path d="m211.45327,166 9,27 -23,-17 h28 l-23,17z"/>
      <path d="m211.45327,218 9,27 -23,-17 h28 l-23,17z"/>

      <path d="m241.47597,37 9,27 -23,-17 h28 l-23,17z"/>
      <path d="m241.47597,89 9,27 -23,-17 h28 l-23,17z"/>
      <path d="m241.47597,141 9,27 -23,-17 h28 l-23,17z"/>
      <path d="m241.47597,192 9,27 -23,-17 h28 l-23,17z"/>

      <path d="m271.49868,10.90033 9,27 -23,-17 h28 l-23,17z"/>
      <path d="m271.49868,63 9,27 -23,-17 h28 l-23,17z"/>
      <path d="m271.49868,115 9,27 -23,-17 h28 l-23,17z"/>
      <path d="m271.49868,166 9,27 -23,-17 h28 l-23,17z"/>
      <path d="m271.49868,218 9,27 -23,-17 h28 l-23,17z"/>

      <path d="m301.52139,37 9,27 -23,-17 h28 l-23,17z"/>
      <path d="m301.52139,89 9,27 -23,-17 h28 l-23,17z"/>
      <path d="m301.52139,141 9,27 -23,-17 h28 l-23,17z"/>
      <path d="m301.52139,192 9,27 -23,-17 h28 l-23,17z"/>

      <path d="m331.54411,10.90033 9,27 -23,-17 h28 l-23,17z"/>
      <path d="m331.54411,63 9,27 -23,-17 h28 l-23,17z"/>
      <path d="m331.54411,115 9,27 -23,-17 h28 l-23,17z"/>
      <path d="m331.54411,166 9,27 -23,-17 h28 l-23,17z"/>
      <path d="m331.54411,218 9,27 -23,-17 h28 l-23,17z"/>
    </g>
  </g>

  <!-- 🇬🇧 U.K. Flag in bottom-right triangle -->
  <g clip-path="url(#clip-uk)">
    <rect width="640" height="480" fill="#012169"/>
    <path fill="#FFF"
      d="M75 0 319 181 562 0h78v62L400 241l240 178v61h-80L320 301 81 480H0v-60l239-178L0 64V0z"/>
    <path fill="#C8102E"
      d="m424 281 216 159v40L369 281zm-184 20 6 35L54 480H0zM640 0v3L391 191l2-44L590 0zM0 0l239 176h-60L0 42z"/>
    <path fill="#FFF" d="M241 0v480h160V0zM0 160v160h640V160z"/>
    <path fill="#C8102E" d="M0 193v96h640v-96zM273 0v480h96V0z"/>
  </g>
</svg>
