<?xml version="1.0" encoding="UTF-8" standalone="no"?>
<svg xmlns="http://www.w3.org/2000/svg"
     viewBox="0 0 640 480"
     id="flag-icons-sr-ba"
     version="1.1">
  <defs>
    <!-- Diagonal split: RS (top-left) ↘ BA (bottom-right) -->
    <clipPath id="clip-rs">
      <polygon points="0,0 640,0 0,480"/>
    </clipPath>
    <clipPath id="clip-ba">
      <polygon points="640,0 640,480 0,480"/>
    </clipPath>
  </defs>

  <!-- Republika Srpska — top-left triangle -->
  <g clip-path="url(#clip-rs)" fill-rule="evenodd">
    <rect width="640" height="160" y="0" fill="#be0026"/>
    <rect width="640" height="160" y="160" fill="#004c99"/>
    <rect width="640" height="160" y="320" fill="#ffffff"/>
  </g>

  <!-- Bosnia & Herzegovina — bottom-right triangle -->
  <g clip-path="url(#clip-ba)" fill-rule="evenodd">
    <path fill="#000099" d="M0 0h640v480H0z"/>
    <path fill="#ffcc00" d="m132.96875,0 479.0625,480.28125v-480z"/>
    <path fill="#ffffff" d="M492.40625,451.40625 466.25,432.375l-26.8125,18.9375 10.125-31.125-26.4375-19.21875h32.8125l10.125-31.125 10.03125,31.21875h32.8125l-26.25,19.40625zm76.21875,9.75-32.8125-.0937-10.03125-31.21875-10.125,31.125h-32.8125l26.4375,19.21875-10.125,31.125 26.8125-18.9375 26.25,19.03125-9.84375-30.9375zM422.75,360.65625l26.25-19.40625-32.8125-.0937-10.03125-31.125-10.125,31.125-32.8125-.0937 26.4375,19.21875-10.125,31.21875 26.8125-19.03125 26.25,19.125zm-60.28125-60.46875 26.25-19.3125-32.8125-.0937-10.03125-31.21875-10.21875,31.125H302.9375l26.4375,19.21875-10.125,31.125 26.8125-18.9375 26.15625,19.03125zm-59.71875-59.625 26.25-19.40625h-32.8125l-9.9375-31.3125-10.125,31.125h-32.8125l26.4375,19.125-10.125,31.21875 26.8125-19.03125 26.25,19.125-9.84375-30.9375zM242.375,180.28125l26.25-19.3125-32.8125-.0937-10.03125-31.21875-10.21875,31.125H182.84375L209.375,180l-10.125,31.125 26.8125-18.9375 26.15625,19.03125-9.75-30.9375zM182.75,120.375l26.15625-19.40625h-32.8125L166.15625,69.65625 155.9375,100.875H123.125L149.75,120l-10.21875,31.125 26.8125-18.9375 26.0625,19.125zm-60-60 26.15625-19.40625h-32.8125L106.15625,9.65625 95.9375,40.875H63.125L89.75,60 79.4375,91.21875 106.34375,72.1875l26.0625,19.125zm-60-60 26.0625-19.40625H56L45.96875,-50.25 35.9375,-19.125H3.125L29.65625,0l-10.125,31.125 26.8125-18.9375 26.0625,19.125z"/>
  </g>
</svg>
