<?xml version="1.0" encoding="UTF-8" standalone="no"?>
<!-- Uploaded to: SVG Repo, www.svgrepo.com, Generator: SVG Repo Mixer Tools -->

<svg
   width="800px"
   height="800px"
   viewBox="0 0 24 24"
   version="1.1"
   id="svg5"
   sodipodi:docname="bearing-balls.svg"
   inkscape:version="1.3.2 (091e20e, 2023-11-25, custom)"
   xmlns:inkscape="http://www.inkscape.org/namespaces/inkscape"
   xmlns:sodipodi="http://sodipodi.sourceforge.net/DTD/sodipodi-0.dtd"
   xmlns="http://www.w3.org/2000/svg"
   xmlns:svg="http://www.w3.org/2000/svg">
  <defs
     id="defs5" />
  <sodipodi:namedview
     id="namedview5"
     pagecolor="#ffffff"
     bordercolor="#999999"
     borderopacity="1"
     inkscape:showpageshadow="2"
     inkscape:pageopacity="0"
     inkscape:pagecheckerboard="0"
     inkscape:deskcolor="#d1d1d1"
     inkscape:zoom="1"
     inkscape:cx="431"
     inkscape:cy="426.5"
     inkscape:window-width="1920"
     inkscape:window-height="1057"
     inkscape:window-x="1912"
     inkscape:window-y="-8"
     inkscape:window-maximized="1"
     inkscape:current-layer="svg5" />
  <path
     id="circle9"
     style="display:inline;stroke-width:1.0338; fill:currentColor;"
     inkscape:label="circle4"
     d="M 17.728515 17.728648 A 1.5506034 1.5506034 0 0 0 17.728474 15.535774 A 1.5506034 1.5506034 0 0 0 15.5356 15.535733 A 1.5506034 1.5506034 0 0 0 15.5356 17.728648 A 1.5506034 1.5506034 0 0 0 17.728515 17.728648 z M 19.722639 13.015505 A 1.5506994 1.5506994 0 0 0 20.101411 12.000006 A 1.5506994 1.5506994 0 0 0 18.550693 10.449287 A 1.5506994 1.5506994 0 0 0 16.999974 12.000006 A 1.5506994 1.5506994 0 0 0 18.550693 13.550724 A 1.5506994 1.5506994 0 0 0 19.722639 13.015505 z M 13.171861 19.5662 A 1.5506995 1.5506995 0 0 0 13.550633 18.550701 A 1.5506995 1.5506995 0 0 0 11.999914 16.999983 A 1.5506995 1.5506995 0 0 0 10.449196 18.550701 A 1.5506995 1.5506995 0 0 0 11.999914 20.101419 A 1.5506995 1.5506995 0 0 0 13.171861 19.5662 z M 17.728722 8.4647341 A 1.5506992 1.5506992 0 0 0 17.728722 6.2717364 A 1.5506992 1.5506992 0 0 0 15.535683 6.2716949 A 1.5506992 1.5506992 0 0 0 15.535683 8.4647756 A 1.5506992 1.5506992 0 0 0 17.728722 8.4647341 z M 8.4645186 17.728772 A 1.5506994 1.5506994 0 0 0 8.4645601 15.535733 A 1.5506994 1.5506994 0 0 0 6.2715208 15.535774 A 1.5506994 1.5506994 0 0 0 6.2715208 17.728772 A 1.5506994 1.5506994 0 0 0 8.4645186 17.728772 z M 13.171861 6.4648097 A 1.5506034 1.5506034 0 0 0 13.550633 5.4493933 A 1.5506034 1.5506034 0 0 0 12.000039 3.8987993 A 1.5506034 1.5506034 0 0 0 10.449445 5.4493933 A 1.5506034 1.5506034 0 0 0 12.000039 6.9999873 A 1.5506034 1.5506034 0 0 0 13.171861 6.4648097 z M 6.6212487 13.015422 A 1.5506992 1.5506992 0 0 0 7.0000204 11.999923 A 1.5506992 1.5506992 0 0 0 5.4493021 10.449204 A 1.5506992 1.5506992 0 0 0 3.8985837 11.999923 A 1.5506992 1.5506992 0 0 0 5.4493021 13.550641 A 1.5506992 1.5506992 0 0 0 6.6212487 13.015422 z M 8.4646015 8.4646513 A 1.5506995 1.5506995 0 0 0 8.4646015 6.2715706 A 1.5506995 1.5506995 0 0 0 6.2715623 6.2716121 A 1.5506995 1.5506995 0 0 0 6.2715623 8.4646098 A 1.5506995 1.5506995 0 0 0 8.4646015 8.4646513 z "
     transform="rotate(-135,11.999996,12.000123)" />
</svg>
