<?xml version="1.0" encoding="UTF-8" standalone="no"?>
<svg
   version="1.0"
   width="1280.000000pt"
   height="1280.000000pt"
   viewBox="0 0 1280.000000 1280.000000"
   preserveAspectRatio="xMidYMid meet"
   id="svg14"
   sodipodi:docname="cohwheel.svg"
   inkscape:version="1.3.2 (091e20e, 2023-11-25, custom)"
   xmlns:inkscape="http://www.inkscape.org/namespaces/inkscape"
   xmlns:sodipodi="http://sodipodi.sourceforge.net/DTD/sodipodi-0.dtd"
   xmlns="http://www.w3.org/2000/svg"
   xmlns:svg="http://www.w3.org/2000/svg">
  <defs
     id="defs14" />
  <sodipodi:namedview
     id="namedview14"
     pagecolor="#ffffff"
     bordercolor="#999999"
     borderopacity="1"
     inkscape:showpageshadow="2"
     inkscape:pageopacity="0"
     inkscape:pagecheckerboard="0"
     inkscape:deskcolor="#d1d1d1"
     inkscape:document-units="pt"
     inkscape:zoom="0.49160156"
     inkscape:cx="852.31625"
     inkscape:cy="853.33333"
     inkscape:window-width="1920"
     inkscape:window-height="1057"
     inkscape:window-x="1912"
     inkscape:window-y="-8"
     inkscape:window-maximized="1"
     inkscape:current-layer="svg14" />
  <metadata
     id="metadata1">
Created by potrace 1.15, written by Peter Selinger 2001-2017
</metadata>
  <path
     d="M6103 12538 l-110 -263 -28 -176 c-15 -100 -25 -202 -23 -237 3 -58 2 -61 -22 -65 -69 -13 -470 -60 -475 -56 -3 3 -9 30 -15 59 -6 29 -44 128 -84 219 -73 163 -78 170 -247 389 -95 123 -177 221 -184 218 -6 -2 -86 -23 -176 -46 -90 -23 -167 -45 -171 -49 -5 -4 -24 -126 -44 -271 l-36 -265 17 -185 c10 -105 26 -213 37 -248 11 -35 18 -65 16 -66 -2 -1 -28 -13 -58 -25 -30 -12 -131 -54 -223 -92 -92 -38 -171 -69 -175 -69 -4 0 -20 25 -35 55 -15 30 -79 118 -144 196 -113 137 -124 147 -334 305 -120 90 -221 164 -225 164 -7 0 -324 -180 -324 -184 0 -2 16 -127 35 -279 l35 -276 65 -172 c38 -99 80 -193 100 -221 l35 -48 -203 -155 -202 -155 -50 55 c-80 86 -311 243 -435 294 -58 24 -173 71 -256 105 l-150 63 -138 -131 -137 -131 108 -261 c103 -247 113 -267 206 -400 55 -76 123 -161 153 -189 l55 -50 -142 -185 c-78 -102 -147 -191 -154 -199 -12 -12 -22 -9 -66 20 -29 19 -128 62 -219 97 l-165 63 -270 34 c-148 19 -275 35 -282 35 -17 0 -196 -317 -187 -332 4 -7 80 -107 167 -223 154 -204 164 -214 303 -327 79 -65 168 -130 198 -145 l54 -28 -94 -230 c-52 -126 -97 -231 -99 -233 -2 -2 -32 5 -67 16 -39 13 -131 27 -243 38 l-180 16 -270 -37 c-148 -20 -272 -38 -274 -40 -10 -10 -99 -361 -93 -366 4 -4 101 -80 217 -170 205 -159 214 -165 380 -240 94 -42 197 -82 229 -88 33 -6 60 -12 61 -13 1 -2 -13 -113 -31 -248 -18 -135 -34 -247 -34 -250 0 -3 -30 -4 -68 -2 -44 2 -128 -7 -243 -26 -174 -30 -179 -31 -420 -132 -134 -56 -250 -104 -256 -107 -10 -4 -13 -52 -13 -193 0 -141 3 -189 13 -193 6 -3 122 -51 256 -107 241 -101 246 -102 420 -132 115 -19 199 -28 244 -26 37 2 67 1 67 -2 0 -3 16 -115 34 -250 18 -135 32 -246 31 -248 -1 -1 -28 -7 -59 -13 -32 -6 -133 -44 -225 -86 -164 -74 -174 -80 -385 -243 -119 -92 -218 -169 -221 -171 -4 -5 89 -356 96 -364 2 -2 126 -20 274 -40 l270 -37 180 16 c112 11 204 25 243 38 35 11 65 18 67 16 3 -2 47 -108 99 -235 l94 -231 -51 -23 c-27 -13 -116 -78 -198 -144 -143 -117 -151 -125 -306 -330 -88 -115 -163 -216 -167 -223 -9 -15 170 -332 187 -332 7 0 134 16 282 35 l270 34 165 63 c91 35 190 78 219 97 44 29 54 32 66 20 7 -8 76 -97 154 -199 l142 -185 -55 -50 c-30 -27 -98 -113 -153 -189 -93 -133 -103 -153 -206 -400 l-108 -261 138 -131 c76 -73 140 -131 143 -129 3 2 117 49 254 105 246 100 252 103 401 210 84 60 170 130 191 155 l39 45 202 -155 203 -155 -35 -48 c-20 -28 -62 -122 -100 -221 l-65 -172 -35 -276 c-19 -152 -32 -279 -29 -282 3 -3 76 -47 162 -97 l156 -92 220 167 c210 159 224 172 338 308 65 78 130 167 145 198 15 30 31 55 35 55 13 0 442 -180 452 -190 4 -4 -1 -34 -12 -67 -12 -36 -26 -126 -37 -243 l-17 -185 36 -265 c20 -145 39 -267 44 -271 4 -4 85 -28 181 -53 141 -38 177 -44 187 -34 7 7 86 109 176 225 159 207 165 217 236 377 39 90 77 187 82 216 6 30 12 56 15 59 5 4 406 -43 475 -56 24 -4 25 -7 22 -65 -2 -35 8 -137 23 -237 l28 -176 110 -263 111 -262 189 2 190 3 104 250 105 250 29 180 c19 110 29 206 27 247 -3 64 -2 67 22 71 69 13 470 60 475 56 3 -3 9 -30 15 -60 6 -29 45 -128 87 -219 72 -156 85 -176 241 -380 91 -118 168 -219 172 -223 7 -8 348 78 362 92 5 4 24 128 44 276 l37 270 -17 188 c-12 133 -22 203 -37 239 -11 28 -16 54 -12 59 9 8 443 189 455 189 4 0 21 -26 37 -57 16 -32 81 -120 143 -195 84 -103 137 -156 208 -210 52 -41 151 -117 220 -170 l125 -95 160 91 c132 76 160 96 163 116 1 14 -13 140 -32 281 l-35 257 -66 173 c-38 98 -80 193 -100 221 l-35 48 203 155 202 156 45 -50 c25 -27 110 -96 190 -154 143 -104 149 -107 395 -207 138 -56 252 -103 255 -105 3 -2 67 56 143 129 l138 131 -108 261 c-103 247 -113 267 -206 400 -55 76 -123 162 -153 189 l-55 50 152 198 c83 108 155 197 161 197 5 0 29 -14 54 -31 24 -16 120 -59 212 -95 l167 -65 270 -34 c149 -19 275 -35 282 -35 9 0 187 290 196 319 1 4 -74 106 -166 227 -164 212 -173 223 -315 339 -81 66 -170 131 -198 145 l-51 25 94 225 c52 124 98 228 102 233 4 4 32 -1 62 -11 32 -12 129 -26 239 -37 l185 -18 270 37 c148 21 271 39 274 41 7 8 100 359 96 364 -3 2 -102 79 -221 171 -211 163 -221 169 -385 243 -92 42 -193 80 -225 86 -31 6 -58 12 -59 13 -1 2 13 113 31 248 18 135 34 247 34 250 0 3 30 4 68 2 44 -2 128 7 243 26 174 30 179 31 420 132 134 56 250 104 257 107 9 4 12 52 12 193 0 141 -3 189 -12 193 -7 3 -123 51 -257 107 -241 101 -246 102 -420 132 -115 19 -199 28 -243 26 -38 -2 -68 -1 -68 2 0 3 -16 115 -34 250 -18 135 -32 246 -31 248 1 1 28 7 61 13 32 6 135 46 229 88 166 75 175 81 380 240 116 90 213 166 217 170 6 5 -83 356 -93 366 -3 2 -126 20 -274 41 l-270 37 -185 -18 c-110 -11 -207 -25 -239 -37 -30 -10 -58 -15 -62 -11 -4 5 -50 109 -103 233 l-94 225 51 25 c29 14 118 79 199 145 142 116 151 127 315 339 92 121 167 223 166 227 -9 29 -187 319 -196 319 -7 0 -133 -16 -282 -35 l-270 -34 -167 -65 c-92 -36 -188 -79 -212 -95 -25 -17 -49 -31 -54 -31 -6 0 -78 89 -161 198 l-152 197 55 50 c30 28 98 113 153 189 93 133 103 153 206 400 l108 261 -137 131 -138 131 -150 -63 c-83 -34 -198 -81 -256 -105 -80 -33 -140 -68 -250 -147 -80 -58 -165 -126 -190 -153 l-45 -50 -202 156 -203 155 35 48 c20 28 63 123 100 222 l66 173 36 267 c20 147 33 274 30 282 -5 14 -304 188 -321 188 -4 0 -105 -74 -224 -165 -206 -158 -223 -172 -330 -303 -62 -75 -127 -163 -143 -195 -22 -43 -35 -58 -47 -54 -18 4 -444 178 -451 183 -2 2 6 29 17 59 16 40 26 108 38 243 l17 187 -37 270 c-20 148 -39 272 -44 276 -7 7 -355 100 -358 96 0 -1 -77 -101 -171 -222 -163 -211 -173 -227 -246 -385 -42 -91 -81 -190 -87 -219 -6 -30 -12 -57 -15 -60 -5 -4 -406 43 -475 56 -24 4 -25 7 -22 71 2 41 -8 137 -27 247 l-29 180 -105 250 -104 250 -190 3 -189 2 -111 -262z m565 -25 c99 -244 102 -251 127 -413 18 -109 26 -194 24 -250 l-3 -84 284 -37 c157 -20 286 -36 288 -34 1 1 9 35 16 76 9 52 37 123 90 237 71 153 85 174 233 365 86 111 158 204 160 207 2 2 74 -14 161 -36 l157 -41 34 -263 35 -263 -17 -183 c-13 -148 -22 -195 -43 -249 -15 -36 -25 -67 -23 -69 5 -5 500 -207 522 -213 13 -4 24 9 48 62 20 45 69 113 148 208 111 134 129 151 323 299 l206 158 139 -79 c76 -43 139 -85 141 -94 2 -8 -13 -129 -32 -268 -35 -250 -36 -256 -96 -414 -37 -97 -78 -187 -105 -227 l-45 -67 218 -167 c119 -92 223 -171 230 -177 11 -8 25 2 64 46 27 31 115 104 195 162 141 103 151 108 390 207 l244 101 116 -115 116 -116 -100 -244 c-97 -236 -104 -248 -205 -391 -69 -95 -125 -162 -162 -192 -31 -25 -56 -49 -56 -52 0 -7 59 -85 252 -335 l99 -128 67 45 c38 25 135 71 222 105 l155 61 265 35 c146 18 268 34 271 34 3 0 43 -63 88 -140 l82 -141 -162 -210 c-152 -197 -170 -217 -301 -325 -90 -75 -162 -126 -204 -145 -35 -16 -64 -35 -64 -41 0 -10 208 -515 217 -527 1 -2 35 8 75 22 56 20 115 30 253 43 l180 18 245 -33 c135 -18 251 -36 259 -40 12 -6 89 -263 91 -302 0 -8 -91 -86 -207 -175 -204 -157 -212 -162 -378 -237 -114 -50 -189 -78 -226 -82 -31 -4 -61 -10 -67 -14 -9 -5 -2 -83 26 -292 l38 -284 30 2 c114 5 167 2 309 -22 154 -26 169 -30 407 -128 l247 -102 0 -165 0 -165 -247 -102 c-241 -99 -251 -102 -411 -128 -115 -19 -189 -26 -249 -24 l-87 4 -38 -284 c-20 -156 -35 -286 -33 -289 3 -3 38 -11 78 -18 51 -9 122 -35 236 -88 151 -70 176 -86 354 -223 106 -82 199 -153 207 -159 13 -10 10 -30 -24 -160 -21 -82 -43 -154 -49 -160 -6 -6 -125 -26 -265 -44 l-254 -33 -176 17 c-132 13 -194 23 -249 43 -40 14 -74 24 -76 22 -1 -2 -52 -123 -113 -269 l-111 -265 72 -35 c46 -22 122 -76 208 -147 126 -105 147 -127 297 -323 l162 -210 -81 -137 c-45 -76 -83 -139 -84 -141 -2 -1 -124 13 -272 32 l-269 35 -160 63 c-90 36 -188 83 -224 107 -59 41 -63 42 -76 24 -7 -10 -85 -112 -174 -228 -88 -115 -161 -213 -161 -217 0 -3 26 -28 58 -54 37 -31 95 -101 160 -192 99 -138 107 -153 204 -389 l101 -245 -116 -116 -116 -116 -245 101 c-243 100 -248 103 -391 208 -80 59 -167 132 -194 163 l-49 56 -104 -79 c-311 -238 -358 -277 -351 -288 4 -7 22 -33 41 -60 19 -26 63 -123 99 -215 l64 -167 36 -263 c20 -148 32 -267 27 -272 -5 -5 -69 -43 -142 -85 -89 -51 -137 -73 -145 -67 -7 5 -101 77 -209 161 -183 141 -206 163 -309 287 -67 82 -125 163 -145 206 -27 53 -39 69 -52 66 -18 -5 -514 -209 -521 -214 -2 -2 9 -36 23 -76 22 -59 31 -109 43 -253 l16 -180 -34 -259 -34 -259 -155 -42 c-115 -32 -158 -40 -166 -31 -6 6 -79 100 -163 209 -142 185 -157 209 -227 360 -50 108 -80 187 -89 236 -8 41 -16 75 -17 77 -2 1 -131 -14 -288 -34 l-285 -37 3 -81 c3 -53 -5 -137 -23 -250 -26 -168 -27 -171 -128 -417 l-101 -247 -165 2 -164 3 -102 241 -102 240 -27 175 c-19 117 -27 200 -24 254 l3 80 -285 37 c-157 20 -286 35 -288 34 -1 -2 -9 -35 -16 -74 -8 -44 -42 -136 -86 -236 -69 -154 -80 -173 -207 -337 -74 -96 -147 -190 -163 -210 l-29 -36 -158 42 -158 42 -34 262 -35 262 18 172 c12 117 26 197 43 250 14 43 23 80 22 81 -9 7 -518 216 -526 216 -5 0 -25 -33 -45 -72 -21 -43 -82 -128 -145 -205 -113 -137 -103 -128 -494 -426 l-36 -27 -142 81 c-140 81 -141 82 -136 113 3 17 18 137 35 266 l30 235 64 167 c42 107 80 189 107 228 42 58 42 61 24 74 -11 8 -114 86 -230 175 -115 88 -213 161 -216 161 -4 0 -27 -25 -53 -56 -29 -36 -99 -94 -193 -162 -144 -102 -155 -108 -392 -205 l-244 -99 -114 114 -115 115 98 239 c93 229 102 245 202 387 70 99 125 165 167 201 l63 53 -165 214 c-91 118 -171 222 -178 233 -13 18 -17 17 -77 -26 -42 -29 -118 -65 -228 -107 l-165 -63 -265 -33 c-146 -19 -265 -33 -266 -32 -13 18 -154 271 -154 276 0 4 70 100 155 212 146 193 163 210 293 317 87 72 164 127 210 149 40 20 71 41 68 47 -2 6 -50 124 -106 261 -56 138 -106 254 -110 259 -5 4 -44 -3 -87 -17 -55 -18 -129 -30 -253 -41 l-175 -17 -254 35 c-139 20 -255 37 -257 38 -1 2 -22 72 -45 157 -26 96 -38 155 -32 159 6 4 100 76 209 160 188 145 208 157 361 227 117 53 184 77 238 86 66 11 75 15 75 34 0 12 -16 139 -35 281 -19 142 -35 265 -35 272 0 11 -17 12 -82 7 -68 -5 -115 -1 -259 24 -174 30 -180 32 -418 132 l-241 102 0 157 0 158 108 45 c396 167 364 156 551 188 144 25 191 29 258 24 66 -5 83 -4 83 7 0 7 16 130 35 273 19 143 35 269 35 281 0 18 -9 22 -73 32 -53 8 -119 32 -240 86 -162 73 -173 80 -370 232 -111 86 -204 158 -206 160 -4 3 76 304 83 311 2 2 118 20 258 39 l253 35 175 -16 c123 -12 198 -24 253 -42 43 -14 82 -21 87 -17 5 7 143 336 216 519 3 6 -28 27 -68 47 -43 21 -130 84 -211 150 -130 107 -146 124 -292 317 -85 112 -155 207 -155 211 0 6 143 263 154 277 1 2 121 -13 267 -31 l264 -34 165 -63 c113 -42 185 -76 228 -107 35 -24 64 -43 66 -41 1 2 78 103 170 223 92 121 170 225 172 231 3 7 -22 35 -54 63 -35 31 -101 110 -161 193 -98 136 -105 150 -202 386 l-101 246 115 115 115 115 239 -98 c227 -94 245 -103 390 -205 102 -72 167 -125 199 -163 25 -31 49 -57 53 -57 6 0 427 322 448 343 10 10 4 24 -28 70 -26 37 -65 120 -106 225 l-64 167 -34 265 c-18 146 -32 267 -30 268 2 2 65 39 140 83 l137 78 211 -159 c200 -152 217 -167 325 -298 75 -90 124 -160 144 -204 17 -38 35 -68 40 -68 9 0 520 209 527 216 2 2 -8 36 -22 76 -19 55 -30 118 -43 253 l-17 180 34 259 34 259 145 38 c80 21 152 38 161 39 10 0 81 -84 175 -205 152 -196 162 -212 233 -368 50 -110 78 -186 87 -236 7 -41 15 -75 16 -76 2 -2 131 14 288 34 l284 37 -3 83 c-2 55 6 138 25 254 27 169 29 175 116 382 49 116 96 225 103 243 l14 32 164 0 163 0 102 -247z"
     id="path1"
     style="fill:currentColor"
     transform="matrix(0.1,0,0,-0.1,0,1280)" />
</svg>
